<svg xmlns="http://www.w3.org/2000/svg" xmlns:xlink="http://www.w3.org/1999/xlink" width="0" height="0" style="display:none;"><symbol viewBox="0 0 24 24" id="icons-angle-down">
<path d="M23.4275 7.95366L11.9996 19.38L0.572514 7.95444C-0.190594 7.19055 -0.190594 5.95411 0.572514 5.19257C1.33562 4.42946 2.57128 4.43024 3.33438 5.19257L12.0004 13.857L20.6679 5.19179C21.431 4.42946 22.6667 4.42946 23.429 5.19179C24.1906 5.95489 24.1906 7.19055 23.4275 7.95366Z" fill="black"></path>
</symbol><symbol viewBox="0 0 24 20" id="icons-camera">
<path d="M22 5C22 4.73478 21.8946 4.48051 21.707 4.29297C21.5429 4.12883 21.3276 4.02757 21.0986 4.00488L21 4H17.7998C17.4851 3.99994 17.1888 3.85136 17 3.59961L15.8008 2H8.19922L7 3.59961C6.81118 3.85136 6.51488 3.99994 6.2002 4H3C2.73478 4 2.48051 4.10543 2.29297 4.29297C2.10543 4.48051 2 4.73478 2 5V17C2 17.2652 2.10543 17.5195 2.29297 17.707C2.48051 17.8946 2.73478 18 3 18H21C21.2652 18 21.5195 17.8946 21.707 17.707C21.8946 17.5195 22 17.2652 22 17V5ZM24 17C24 17.7957 23.6837 18.5585 23.1211 19.1211C22.5585 19.6837 21.7957 20 21 20H3C2.20435 20 1.44151 19.6837 0.878906 19.1211C0.316297 18.5585 0 17.7956 0 17V5C0 4.20435 0.316297 3.44152 0.878906 2.87891C1.44152 2.3163 2.20435 2 3 2H5.70117L6.90039 0.400391L6.97559 0.310547C7.16314 0.113451 7.42475 0 7.7002 0H16.2998L16.417 0.00683594C16.6872 0.0386419 16.9344 0.180058 17.0996 0.400391L18.2988 2H21L21.2969 2.01465C21.9835 2.08291 22.6289 2.38671 23.1211 2.87891C23.6837 3.44152 24 4.20435 24 5V17Z"></path>
<path d="M15 11C15 9.34315 13.6569 8 12 8C10.3431 8 9 9.34315 9 11C9 12.6569 10.3431 14 12 14C13.6569 14 15 12.6569 15 11ZM17 11C17 13.7614 14.7614 16 12 16C9.23858 16 7 13.7614 7 11C7 8.23858 9.23858 6 12 6C14.7614 6 17 8.23858 17 11Z"></path>
</symbol><symbol viewBox="0 0 24 24" id="icons-check"><path d="M22.32 4.431 8.5 18.249a1 1 0 0 1-1.417 0L1.74 12.9a1 1 0 0 0-1.635.325 1 1 0 0 0 .218 1.092l5.346 5.345a3.008 3.008 0 0 0 4.25 0L23.736 5.847a1 1 0 0 0-.708-1.71 1 1 0 0 0-.709.294Z"></path></symbol><symbol viewBox="0 0 19 19" id="icons-edit">
<path d="M18 17C18.5523 17 19 17.4477 19 18C19 18.5523 18.5523 19 18 19H9C8.44772 19 8 18.5523 8 18C8 17.4477 8.44772 17 9 17H18Z"></path>
<path d="M13.5 1.5C13.8978 1.10217 14.4374 0.878677 15 0.878677C15.5626 0.878677 16.1022 1.10217 16.5 1.5C16.8978 1.89782 17.1213 2.43739 17.1213 3C17.1213 3.56261 16.8978 4.10217 16.5 4.5L4 17L0 18L1 14L13.5 1.5Z"></path>
</symbol><symbol viewBox="0 0 600 668" id="icons-filter">
<path d="M433.333 67.3337C451.743 67.3337 466.666 82.2572 466.666 100.667C466.666 119.076 451.743 134 433.333 134H33.3334C14.9239 134 0.000366211 119.076 0.000366211 100.667C0.000366211 82.2572 14.9239 67.3337 33.3334 67.3337H433.333Z"></path>
<path d="M233.333 300.667C251.743 300.667 266.666 315.591 266.666 334C266.666 352.409 251.743 367.333 233.333 367.333H33.3334C14.9239 367.333 0.000366211 352.409 0.000366211 334C0.000366211 315.591 14.9239 300.667 33.3334 300.667H233.333Z"></path>
<path d="M566.667 300.667C585.076 300.667 600 315.591 600 334C600 352.409 585.076 367.333 566.667 367.333H366.667C348.257 367.333 333.334 352.409 333.334 334C333.334 315.591 348.257 300.667 366.667 300.667H566.667Z"></path>
<path d="M566.667 534C585.076 534 600 548.924 600 567.333C600 585.743 585.076 600.666 566.667 600.666H166.667C148.257 600.666 133.334 585.743 133.334 567.333C133.334 548.924 148.257 534 166.667 534H566.667Z"></path>
<path d="M533.333 100.667C533.333 82.2576 518.41 67.3332 500 67.333C481.591 67.333 466.666 82.2575 466.666 100.667C466.666 119.076 481.591 134 500 134C518.41 134 533.333 119.076 533.333 100.667ZM600 100.667C600 155.895 555.229 200.667 500 200.667C444.772 200.667 400 155.895 400 100.667C400 45.4385 444.772 0.666992 500 0.666992C555.229 0.66717 600 45.4386 600 100.667Z"></path>
<path d="M333.333 334C333.333 315.591 318.41 300.667 300 300.666C281.591 300.666 266.666 315.591 266.666 334C266.667 352.41 281.591 367.333 300 367.333C318.41 367.333 333.333 352.41 333.333 334ZM400 334C400 389.229 355.229 434 300 434C244.772 434 200.001 389.229 200 334C200 278.772 244.772 234 300 234C355.229 234.001 400 278.772 400 334Z"></path>
<path d="M133.333 567.334C133.333 548.924 118.41 534 100 534C81.5909 534 66.6664 548.924 66.6664 567.334C66.6666 585.743 81.591 600.667 100 600.667C118.41 600.667 133.333 585.743 133.333 567.334ZM200 567.334C200 622.562 155.229 667.334 100 667.334C44.772 667.334 0.000543513 622.562 0.000366211 567.334C0.000366211 512.105 44.7719 467.334 100 467.334C155.229 467.334 200 512.105 200 567.334Z"></path>
</symbol><symbol viewBox="0 0 24 21" id="icons-gamepad">
<path fill-rule="evenodd" clip-rule="evenodd" d="M15.2501 1.15625C15.6988 1.15625 16.0626 1.47805 16.0626 1.875V2.83333C16.0626 3.75956 15.2138 4.51042 14.1668 4.51042H13.0834C12.9338 4.51042 12.8126 4.61768 12.8126 4.75V4.98958H13.3898C14.8126 4.98957 15.9403 4.98956 16.8501 5.06896C17.7844 5.1505 18.5649 5.32055 19.2706 5.70252C19.6044 5.88323 19.9147 6.09509 20.1958 6.33447C20.792 6.84204 21.1653 7.4628 21.4722 8.23272C21.7701 8.97989 22.0274 9.9274 22.3507 11.118L23.5364 15.4848C24.0597 17.4118 22.6641 19.3117 20.4738 19.7517C18.63 20.122 16.7173 19.3507 15.8713 17.8636L15.7326 17.6198C15.2563 16.7827 14.2592 16.2403 13.1523 16.2403H10.8478C9.74093 16.2403 8.74381 16.7827 8.26751 17.6198L8.12885 17.8636C7.28283 19.3507 5.37015 20.122 3.52628 19.7517C1.33604 19.3117 -0.0595922 17.4118 0.463678 15.4848L1.64936 11.1181C1.97266 9.92749 2.22996 8.97989 2.52786 8.23271C2.83485 7.4628 3.20813 6.84204 3.80424 6.33447C4.08537 6.09509 4.39571 5.88323 4.7296 5.70252C5.43528 5.32055 6.21571 5.1505 7.15002 5.06896C8.05983 4.98956 9.18752 4.98957 10.6104 4.98958H11.1876V4.75C11.1876 3.82377 12.0364 3.07292 13.0834 3.07292H14.1668C14.3163 3.07292 14.4376 2.96565 14.4376 2.83333V1.875C14.4376 1.47805 14.8014 1.15625 15.2501 1.15625ZM10.6533 6.42708C9.17795 6.42708 8.13032 6.4279 7.30954 6.49952C6.50413 6.56981 5.99398 6.70338 5.57772 6.92869C5.34372 7.05535 5.12694 7.20344 4.93115 7.37015C4.58501 7.66488 4.32108 8.05691 4.06033 8.71089C3.79371 9.37952 3.55509 10.2545 3.21897 11.4924L2.04373 15.8205C1.74074 16.9364 2.54148 18.0797 3.88613 18.3498C5.02321 18.5783 6.17689 18.097 6.67731 17.2173L6.81598 16.9736C7.57593 15.6379 9.14415 14.8028 10.8478 14.8028H13.1523C14.856 14.8028 16.4242 15.6379 17.1842 16.9736L17.3228 17.2173C17.8232 18.097 18.9769 18.5783 20.1139 18.3498C21.4587 18.0797 22.2594 16.9364 21.9564 15.8205L20.7812 11.4924C20.445 10.2546 20.2065 9.37952 19.9397 8.71089C19.6791 8.05691 19.4151 7.66488 19.069 7.37015C18.8732 7.20344 18.6564 7.05535 18.4224 6.92869C18.0061 6.70338 17.496 6.56981 16.6906 6.49952C15.8698 6.4279 14.8222 6.42708 13.3468 6.42708H10.6533ZM8.2084 8.82292C8.65712 8.82292 9.0209 9.14472 9.0209 9.54167V10.2604H9.83343C10.2821 10.2604 10.6459 10.5822 10.6459 10.9792C10.6459 11.3761 10.2821 11.6979 9.83343 11.6979H9.0209V12.4167C9.0209 12.8136 8.65712 13.1354 8.2084 13.1354C7.75966 13.1354 7.3959 12.8136 7.3959 12.4167V11.6979H6.5834C6.13466 11.6979 5.7709 11.3761 5.7709 10.9792C5.7709 10.5822 6.13466 10.2604 6.5834 10.2604H7.3959V9.54167C7.3959 9.14472 7.75966 8.82292 8.2084 8.82292Z"></path>
<path d="M15.2501 0.956055C15.7855 0.956062 16.2628 1.34525 16.2628 1.875V2.83301C16.2628 3.89193 15.3007 4.7098 14.1671 4.70996H13.0831C13.0561 4.71003 13.036 4.72028 13.0245 4.73047C13.0133 4.74037 13.0128 4.7476 13.0128 4.75V4.79004L14.4025 4.79102C15.3645 4.79472 16.177 4.80988 16.8673 4.87012L17.2169 4.90527C18.017 4.99944 18.7185 5.17634 19.3653 5.52637L19.6202 5.67285C19.8704 5.82531 20.1062 5.99601 20.3253 6.18262L20.5509 6.38867C21.0509 6.88304 21.3834 7.46862 21.6583 8.1582L21.7696 8.45312C22.027 9.16241 22.2622 10.0272 22.5441 11.0654L23.7296 15.4326L23.7755 15.626C24.1814 17.5564 22.8104 19.3834 20.7237 19.9004L20.5128 19.9473C18.6575 20.3199 16.7173 19.5842 15.7843 18.1074L15.6974 17.9629L15.5587 17.7188C15.1229 16.953 14.198 16.4405 13.1525 16.4404H10.8478C9.86745 16.4404 8.99291 16.8907 8.52843 17.5781L8.44151 17.7188L8.30284 17.9629C7.4637 19.4376 5.64838 20.2296 3.84679 20.0059L3.48644 19.9473C1.2117 19.4901 -0.28988 17.4973 0.270616 15.4326L1.45616 11.0654L1.68761 10.2178C1.911 9.41144 2.11458 8.72837 2.34191 8.1582L2.46398 7.86914C2.75761 7.20891 3.12457 6.65123 3.67491 6.18262L3.89952 6.00098C4.12941 5.82558 4.37566 5.66667 4.63487 5.52637L4.91515 5.38672C5.5787 5.08417 6.30357 4.94249 7.13292 4.87012L7.48839 4.84277C8.34214 4.78901 9.36848 4.79003 10.6105 4.79004H10.9874V4.75C10.9874 3.69107 11.9495 2.8732 13.0831 2.87305H14.1671C14.194 2.87297 14.2141 2.86276 14.2257 2.85254C14.2368 2.84268 14.2374 2.83534 14.2374 2.83301V1.875C14.2374 1.34525 14.7147 0.956055 15.2501 0.956055ZM15.2501 1.15625C14.8014 1.15625 14.4376 1.47805 14.4376 1.875V2.83333C14.4376 2.96565 14.3163 3.07292 14.1668 3.07292H13.0834C12.0364 3.07292 11.1876 3.82377 11.1876 4.75V4.98958H10.6104C9.18752 4.98957 8.05983 4.98956 7.15002 5.06896C6.21571 5.1505 5.43528 5.32055 4.7296 5.70252C4.39571 5.88323 4.08537 6.09509 3.80424 6.33447C3.20813 6.84204 2.83485 7.4628 2.52786 8.23271C2.22996 8.97989 1.97266 9.92749 1.64936 11.1181L0.463678 15.4848C-0.0595922 17.4118 1.33604 19.3117 3.52628 19.7517C5.37015 20.122 7.28283 19.3507 8.12885 17.8636L8.26751 17.6198C8.74381 16.7827 9.74093 16.2403 10.8478 16.2403H13.1523C14.2592 16.2403 15.2563 16.7827 15.7326 17.6198L15.8713 17.8636C16.7173 19.3507 18.63 20.122 20.4738 19.7517C22.6641 19.3117 24.0597 17.4118 23.5364 15.4848L22.3507 11.118C22.0274 9.9274 21.7701 8.97989 21.4722 8.23272C21.1653 7.4628 20.792 6.84204 20.1958 6.33447C19.9147 6.09509 19.6044 5.88323 19.2706 5.70252C18.5649 5.32055 17.7844 5.1505 16.8501 5.06896C15.9403 4.98956 14.8126 4.98957 13.3898 4.98958H12.8126V4.75C12.8126 4.61768 12.9338 4.51042 13.0834 4.51042H14.1668C15.2138 4.51042 16.0626 3.75956 16.0626 2.83333V1.875C16.0626 1.47805 15.6988 1.15625 15.2501 1.15625ZM13.3468 6.42708C14.8222 6.42708 15.8698 6.4279 16.6906 6.49952C17.496 6.56981 18.0061 6.70338 18.4224 6.92869C18.6564 7.05535 18.8732 7.20344 19.069 7.37015C19.4151 7.66488 19.6791 8.05691 19.9397 8.71089C20.2065 9.37952 20.445 10.2546 20.7812 11.4924L21.9564 15.8205C22.2594 16.9364 21.4587 18.0797 20.1139 18.3498C18.9769 18.5783 17.8232 18.097 17.3228 17.2173L17.1842 16.9736C16.4242 15.6379 14.856 14.8028 13.1523 14.8028H10.8478C9.14415 14.8028 7.57593 15.6379 6.81598 16.9736L6.67731 17.2173C6.17689 18.097 5.02321 18.5783 3.88613 18.3498C2.54148 18.0797 1.74074 16.9364 2.04373 15.8205L3.21897 11.4924C3.55509 10.2545 3.79371 9.37952 4.06033 8.71089C4.32108 8.05691 4.58501 7.66488 4.93115 7.37015C5.12694 7.20344 5.34372 7.05535 5.57772 6.92869C5.99398 6.70338 6.50413 6.56981 7.30954 6.49952C8.13032 6.4279 9.17795 6.42708 10.6533 6.42708H13.3468ZM10.6534 6.62695C9.5443 6.62695 8.68339 6.62811 7.98058 6.6582L7.32726 6.69922C6.63445 6.75968 6.18023 6.86586 5.8214 7.03027L5.67296 7.10449C5.50647 7.1946 5.34926 7.29582 5.20323 7.40723L5.06066 7.52246C4.78659 7.75585 4.56248 8.06105 4.34093 8.55957L4.2462 8.78516C4.05017 9.27679 3.86833 9.8844 3.64757 10.6816L2.23644 15.873C1.97087 16.8517 2.66711 17.9005 3.92589 18.1533L4.12511 18.1865C5.12125 18.3099 6.07974 17.8623 6.50304 17.1182L6.64171 16.875L6.80187 16.6172C7.6482 15.3628 9.19342 14.6025 10.8478 14.6025H13.1525C14.9171 14.6026 16.557 15.4679 17.3575 16.875L17.4962 17.1182L17.588 17.2637C18.0805 17.9668 19.0755 18.354 20.0743 18.1533L20.3038 18.0977C21.3427 17.7923 21.9309 16.9179 21.8019 16.0566L21.7638 15.873L20.588 11.5449C20.2928 10.458 20.0755 9.66212 19.8507 9.04102L19.754 8.78516C19.5324 8.22901 19.3147 7.88328 19.0538 7.62695L18.9396 7.52246C18.8009 7.40437 18.6505 7.29582 18.4903 7.19824L18.3273 7.10449C17.9926 6.92337 17.5835 6.80149 16.9562 6.72754L16.673 6.69922C15.8629 6.62855 14.8256 6.62695 13.3468 6.62695H10.6534ZM8.20812 8.62305C8.74355 8.62305 9.22081 9.01225 9.22081 9.54199V10.0605H9.83312C10.3685 10.0605 10.8458 10.4498 10.8458 10.9795C10.8456 11.5091 10.3684 11.8975 9.83312 11.8975H9.22081V12.417C9.22062 12.9466 8.74344 13.335 8.20812 13.335C7.67289 13.3348 7.19562 12.9465 7.19542 12.417V11.8975H6.58312C6.04789 11.8973 5.57062 11.509 5.57042 10.9795C5.57042 10.4498 6.04778 10.0607 6.58312 10.0605H7.19542V9.54199C7.19542 9.01235 7.67278 8.62318 8.20812 8.62305ZM8.2084 8.82292C7.75966 8.82292 7.3959 9.14472 7.3959 9.54167V10.2604H6.5834C6.13466 10.2604 5.7709 10.5822 5.7709 10.9792C5.7709 11.3761 6.13466 11.6979 6.5834 11.6979H7.3959V12.4167C7.3959 12.8136 7.75966 13.1354 8.2084 13.1354C8.65712 13.1354 9.0209 12.8136 9.0209 12.4167V11.6979H9.83343C10.2821 11.6979 10.6459 11.3761 10.6459 10.9792C10.6459 10.5822 10.2821 10.2604 9.83343 10.2604H9.0209V9.54167C9.0209 9.14472 8.65712 8.82292 8.2084 8.82292Z"></path>
<path d="M16.3334 9.54167C16.3334 10.071 15.8484 10.5 15.2501 10.5C14.6518 10.5 14.1668 10.071 14.1668 9.54167C14.1668 9.01238 14.6518 8.58333 15.2501 8.58333C15.8484 8.58333 16.3334 9.01238 16.3334 9.54167Z"></path>
<path d="M16.3334 9.54167C16.3332 9.04568 15.9072 8.63737 15.3611 8.58822L15.2501 8.58333C14.6518 8.58333 14.1668 9.01238 14.1668 9.54167L14.1726 9.63997C14.2246 10.0909 14.6296 10.4497 15.1394 10.4954L15.2501 10.5C15.8109 10.5 16.2723 10.1231 16.3279 9.63997L16.3334 9.54167ZM16.6336 9.54134C16.6336 10.2698 15.9782 10.8001 15.2498 10.8001C14.5215 10.8 13.867 10.2697 13.867 9.54134C13.8672 8.81313 14.5216 8.28369 15.2498 8.28353C15.978 8.28353 16.6334 8.81303 16.6336 9.54134Z"></path>
<path d="M18.5001 12.4167C18.5001 12.946 18.0151 13.375 17.4168 13.375C16.8184 13.375 16.3334 12.946 16.3334 12.4167C16.3334 11.8874 16.8184 11.4583 17.4168 11.4583C18.0151 11.4583 18.5001 11.8874 18.5001 12.4167Z"></path>
<path d="M18.5001 12.4167C18.4999 11.9207 18.0738 11.5124 17.5278 11.4632L17.4168 11.4583C16.8184 11.4583 16.3334 11.8874 16.3334 12.4167L16.3393 12.515C16.3912 12.9659 16.7963 13.3247 17.3061 13.3704L17.4168 13.375C17.9776 13.375 18.4389 12.9981 18.4946 12.515L18.5001 12.4167ZM18.8002 12.4163C18.8002 13.1448 18.1448 13.6751 17.4164 13.6751C16.6882 13.675 16.0336 13.1447 16.0336 12.4163C16.0338 11.6881 16.6883 11.1587 17.4164 11.1585C18.1447 11.1585 18.8 11.688 18.8002 12.4163Z"></path>
</symbol><symbol viewBox="0 0 22 22" id="icons-loading">
<path d="M11 0C11.5523 0 12 0.447715 12 1C12 1.55228 11.5523 2 11 2C9.22005 2 7.48001 2.52774 6.00001 3.5166C4.52006 4.50547 3.36676 5.91127 2.68556 7.55566C2.00437 9.2002 1.82559 11.01 2.17286 12.7559C2.52013 14.5017 3.37709 16.1056 4.63575 17.3643C5.89442 18.6229 7.49833 19.4799 9.24415 19.8271C10.99 20.1744 12.7998 19.9956 14.4443 19.3145C16.0887 18.6332 17.4945 17.4799 18.4834 16C19.4723 14.52 20 12.78 20 11C20 10.4477 20.4477 10 21 10C21.5523 10 22 10.4477 22 11C22 13.1756 21.3551 15.3024 20.1465 17.1113C18.9378 18.9202 17.2199 20.3305 15.21 21.1631C13.2002 21.9956 10.9881 22.2134 8.8545 21.7891C6.72071 21.3646 4.76007 20.3167 3.22169 18.7783C1.68331 17.2399 0.635384 15.2793 0.210947 13.1455C-0.213344 11.0119 0.00443071 8.79985 0.836923 6.79004C1.6695 4.78015 3.07981 3.06216 4.88868 1.85352C6.6976 0.644866 8.82446 9.4264e-07 11 0Z"></path>
</symbol><symbol viewBox="0 0 20 20" id="icons-search">
<path d="M14 8C14 4.68629 11.3137 2 8 2C4.68629 2 2 4.68629 2 8C2 11.3137 4.68629 14 8 14C11.3137 14 14 11.3137 14 8ZM16 8C16 12.4183 12.4183 16 8 16C3.58172 16 0 12.4183 0 8C0 3.58172 3.58172 0 8 0C12.4183 0 16 3.58172 16 8Z"></path>
<path d="M12.293 12.293C12.6591 11.9268 13.2381 11.9043 13.6309 12.2246L13.707 12.293L19.707 18.293L19.7754 18.3691C20.0958 18.7619 20.0732 19.3409 19.707 19.707C19.3409 20.0731 18.7619 20.0957 18.3692 19.7754L18.293 19.707L12.293 13.707L12.2246 13.6309C11.9043 13.2381 11.9269 12.6591 12.293 12.293Z"></path>
</symbol><symbol viewBox="0 0 20 21" id="icons-trash">
<path d="M19 3C19.5523 3 20 3.44772 20 4C20 4.55228 19.5523 5 19 5H1C0.447715 5 0 4.55228 0 4C0 3.44772 0.447715 3 1 3H19Z"></path>
<path d="M13 4V3C13 2.73478 12.8946 2.48051 12.707 2.29297C12.5429 2.12883 12.3276 2.02757 12.0986 2.00488L12 2H8C7.73478 2 7.48051 2.10543 7.29297 2.29297C7.10543 2.48051 7 2.73478 7 3V4C7 4.55228 6.55228 5 6 5C5.44772 5 5 4.55228 5 4V3C5 2.20435 5.3163 1.44152 5.87891 0.878906C6.44152 0.316297 7.20435 0 8 0H12L12.2969 0.0146484C12.9835 0.0829076 13.6289 0.386708 14.1211 0.878906C14.6837 1.44152 15 2.20435 15 3V4C15 4.55228 14.5523 5 14 5C13.4477 5 13 4.55228 13 4Z"></path>
<path d="M17.0713 3.00292C17.6221 3.04231 18.0364 3.52042 17.9971 4.07128L16.9971 18.0713L16.9961 18.0703C16.978 18.8405 16.6671 19.5751 16.1211 20.1211C15.5585 20.6837 14.7957 21 14 21H6C5.20435 21 4.44152 20.6837 3.87891 20.1211C3.3329 19.5751 3.02098 18.8405 3.00293 18.0703V18.0713L2.00293 4.07128L2 3.96874C2.01522 3.4622 2.41234 3.03984 2.92871 3.00292C3.44519 2.96603 3.89837 3.32778 3.98535 3.82714L3.99707 3.9287L4.99707 17.9287L5 18C5 18.2652 5.10543 18.5195 5.29297 18.707C5.48051 18.8946 5.73478 19 6 19H14C14.2652 19 14.5195 18.8946 14.707 18.707C14.8946 18.5195 15 18.2652 15 18L15.0029 17.9287L16.0029 3.9287C16.0423 3.37786 16.5204 2.96358 17.0713 3.00292Z"></path>
<path d="M7 15V9C7 8.44772 7.44772 8 8 8C8.55228 8 9 8.44772 9 9V15C9 15.5523 8.55228 16 8 16C7.44772 16 7 15.5523 7 15Z"></path>
<path d="M11 15V9C11 8.44772 11.4477 8 12 8C12.5523 8 13 8.44772 13 9V15C13 15.5523 12.5523 16 12 16C11.4477 16 11 15.5523 11 15Z"></path>
</symbol><symbol viewBox="0 0 18 20" id="icons-trophy">
<path d="M12 2H6V5L6.01465 5.29688C6.08291 5.98351 6.38671 6.6289 6.87891 7.12109C7.44152 7.6837 8.20435 8 9 8L9.29688 7.98535C9.98351 7.91709 10.6289 7.61329 11.1211 7.12109C11.6837 6.55848 12 5.79565 12 5V2ZM13.9941 5.24805C13.9328 6.48382 13.4142 7.6561 12.5352 8.53516C11.6561 9.41421 10.4838 9.93281 9.24805 9.99414L9 10C7.67392 10 6.40253 9.47284 5.46484 8.53516C4.58579 7.6561 4.06719 6.48382 4.00586 5.24805L4 5V1L4.00488 0.897461C4.05621 0.393331 4.48232 0 5 0H13L13.1025 0.00488281C13.6067 0.0562144 14 0.482323 14 1V5L13.9941 5.24805Z"></path>
<path d="M8 19V15C8 14.4477 8.44772 14 9 14C9.55228 14 10 14.4477 10 15V19C10 19.5523 9.55228 20 9 20C8.44772 20 8 19.5523 8 19Z"></path>
<path d="M13 18C13.5523 18 14 18.4477 14 19C14 19.5523 13.5523 20 13 20H5C4.44772 20 4 19.5523 4 19C4 18.4477 4.44772 18 5 18H13Z"></path>
<path d="M0 3C0 2.44772 0.447715 2 1 2C1.55228 2 2 2.44772 2 3C2 3.79565 2.3163 4.55848 2.87891 5.12109C3.3711 5.61329 4.01649 5.91709 4.70312 5.98535L5 6L5.10254 6.00488C5.60667 6.05621 6 6.48232 6 7C6 7.51768 5.60667 7.94379 5.10254 7.99512L5 8L4.75195 7.99414C3.51618 7.93281 2.3439 7.41421 1.46484 6.53516C0.527162 5.59747 0 4.32608 0 3Z"></path>
<path d="M16 3C16 2.44772 16.4477 2 17 2C17.5523 2 18 2.44772 18 3C18 4.32608 17.4728 5.59747 16.5352 6.53516C15.5975 7.47284 14.3261 8 13 8C12.4477 8 12 7.55228 12 7C12 6.44772 12.4477 6 13 6C13.7956 6 14.5585 5.6837 15.1211 5.12109C15.6837 4.55848 16 3.79565 16 3Z"></path>
</symbol><symbol viewBox="0 0 20 18" id="icons-warning">
<path d="M9.7578 0C10.1366 0 10.4829 0.213969 10.6523 0.552734L10.8877 0.993164C11.7099 2.49317 14.4417 7.3059 19.1123 15.4795C19.2467 15.6782 19.3735 15.9046 19.4473 16.1504C19.5284 16.4211 19.5713 16.8086 19.3769 17.1973C19.1804 17.5902 18.8398 17.7882 18.5654 17.8828C18.2978 17.9751 18.0134 18 17.7578 18H1.7578C1.50222 18 1.21781 17.9751 0.950183 17.8828C0.675857 17.7881 0.335156 17.5902 0.138659 17.1973C-0.0556822 16.8086 -0.0127917 16.4211 0.0683467 16.1504C0.142072 15.9046 0.268953 15.6782 0.403308 15.4795C5.7413 6.13793 8.54654 1.18617 8.86327 0.552734L8.93456 0.431641C9.11947 0.163674 9.42636 2.7032e-05 9.7578 0ZM9.7578 3.07324C8.52531 5.27317 6.07114 9.59052 2.40917 16H17.1064C13.4444 9.59049 10.9903 5.27314 9.7578 3.07324Z"></path>
<path d="M8.7579 7H10.7579V11H8.7579V7ZM8.7579 13H10.7579V15H8.7579V13Z"></path>
</symbol></svg>