<svg xmlns="http://www.w3.org/2000/svg" xmlns:xlink="http://www.w3.org/1999/xlink" width="0" height="0" style="display:none;"><symbol viewBox="0 0 24 20" id="icons-camera">
<path d="M22 5C22 4.73478 21.8946 4.48051 21.707 4.29297C21.5429 4.12883 21.3276 4.02757 21.0986 4.00488L21 4H17.7998C17.4851 3.99994 17.1888 3.85136 17 3.59961L15.8008 2H8.19922L7 3.59961C6.81118 3.85136 6.51488 3.99994 6.2002 4H3C2.73478 4 2.48051 4.10543 2.29297 4.29297C2.10543 4.48051 2 4.73478 2 5V17C2 17.2652 2.10543 17.5195 2.29297 17.707C2.48051 17.8946 2.73478 18 3 18H21C21.2652 18 21.5195 17.8946 21.707 17.707C21.8946 17.5195 22 17.2652 22 17V5ZM24 17C24 17.7957 23.6837 18.5585 23.1211 19.1211C22.5585 19.6837 21.7957 20 21 20H3C2.20435 20 1.44151 19.6837 0.878906 19.1211C0.316297 18.5585 0 17.7956 0 17V5C0 4.20435 0.316297 3.44152 0.878906 2.87891C1.44152 2.3163 2.20435 2 3 2H5.70117L6.90039 0.400391L6.97559 0.310547C7.16314 0.113451 7.42475 0 7.7002 0H16.2998L16.417 0.00683594C16.6872 0.0386419 16.9344 0.180058 17.0996 0.400391L18.2988 2H21L21.2969 2.01465C21.9835 2.08291 22.6289 2.38671 23.1211 2.87891C23.6837 3.44152 24 4.20435 24 5V17Z"></path>
<path d="M15 11C15 9.34315 13.6569 8 12 8C10.3431 8 9 9.34315 9 11C9 12.6569 10.3431 14 12 14C13.6569 14 15 12.6569 15 11ZM17 11C17 13.7614 14.7614 16 12 16C9.23858 16 7 13.7614 7 11C7 8.23858 9.23858 6 12 6C14.7614 6 17 8.23858 17 11Z"></path>
</symbol><symbol viewBox="0 0 19 19" id="icons-edit">
<path d="M18 17C18.5523 17 19 17.4477 19 18C19 18.5523 18.5523 19 18 19H9C8.44772 19 8 18.5523 8 18C8 17.4477 8.44772 17 9 17H18Z"></path>
<path d="M13.5 1.5C13.8978 1.10217 14.4374 0.878677 15 0.878677C15.5626 0.878677 16.1022 1.10217 16.5 1.5C16.8978 1.89782 17.1213 2.43739 17.1213 3C17.1213 3.56261 16.8978 4.10217 16.5 4.5L4 17L0 18L1 14L13.5 1.5Z"></path>
</symbol><symbol viewBox="0 0 22 22" id="icons-loading">
<path d="M11 0C11.5523 0 12 0.447715 12 1C12 1.55228 11.5523 2 11 2C9.22005 2 7.48001 2.52774 6.00001 3.5166C4.52006 4.50547 3.36676 5.91127 2.68556 7.55566C2.00437 9.2002 1.82559 11.01 2.17286 12.7559C2.52013 14.5017 3.37709 16.1056 4.63575 17.3643C5.89442 18.6229 7.49833 19.4799 9.24415 19.8271C10.99 20.1744 12.7998 19.9956 14.4443 19.3145C16.0887 18.6332 17.4945 17.4799 18.4834 16C19.4723 14.52 20 12.78 20 11C20 10.4477 20.4477 10 21 10C21.5523 10 22 10.4477 22 11C22 13.1756 21.3551 15.3024 20.1465 17.1113C18.9378 18.9202 17.2199 20.3305 15.21 21.1631C13.2002 21.9956 10.9881 22.2134 8.8545 21.7891C6.72071 21.3646 4.76007 20.3167 3.22169 18.7783C1.68331 17.2399 0.635384 15.2793 0.210947 13.1455C-0.213344 11.0119 0.00443071 8.79985 0.836923 6.79004C1.6695 4.78015 3.07981 3.06216 4.88868 1.85352C6.6976 0.644866 8.82446 9.4264e-07 11 0Z"></path>
</symbol><symbol viewBox="0 0 20 20" id="icons-search">
<path d="M14 8C14 4.68629 11.3137 2 8 2C4.68629 2 2 4.68629 2 8C2 11.3137 4.68629 14 8 14C11.3137 14 14 11.3137 14 8ZM16 8C16 12.4183 12.4183 16 8 16C3.58172 16 0 12.4183 0 8C0 3.58172 3.58172 0 8 0C12.4183 0 16 3.58172 16 8Z"></path>
<path d="M12.293 12.293C12.6591 11.9268 13.2381 11.9043 13.6309 12.2246L13.707 12.293L19.707 18.293L19.7754 18.3691C20.0958 18.7619 20.0732 19.3409 19.707 19.707C19.3409 20.0731 18.7619 20.0957 18.3692 19.7754L18.293 19.707L12.293 13.707L12.2246 13.6309C11.9043 13.2381 11.9269 12.6591 12.293 12.293Z"></path>
</symbol><symbol viewBox="0 0 20 21" id="icons-trash">
<path d="M19 3C19.5523 3 20 3.44772 20 4C20 4.55228 19.5523 5 19 5H1C0.447715 5 0 4.55228 0 4C0 3.44772 0.447715 3 1 3H19Z"></path>
<path d="M13 4V3C13 2.73478 12.8946 2.48051 12.707 2.29297C12.5429 2.12883 12.3276 2.02757 12.0986 2.00488L12 2H8C7.73478 2 7.48051 2.10543 7.29297 2.29297C7.10543 2.48051 7 2.73478 7 3V4C7 4.55228 6.55228 5 6 5C5.44772 5 5 4.55228 5 4V3C5 2.20435 5.3163 1.44152 5.87891 0.878906C6.44152 0.316297 7.20435 0 8 0H12L12.2969 0.0146484C12.9835 0.0829076 13.6289 0.386708 14.1211 0.878906C14.6837 1.44152 15 2.20435 15 3V4C15 4.55228 14.5523 5 14 5C13.4477 5 13 4.55228 13 4Z"></path>
<path d="M17.0713 3.00292C17.6221 3.04231 18.0364 3.52042 17.9971 4.07128L16.9971 18.0713L16.9961 18.0703C16.978 18.8405 16.6671 19.5751 16.1211 20.1211C15.5585 20.6837 14.7957 21 14 21H6C5.20435 21 4.44152 20.6837 3.87891 20.1211C3.3329 19.5751 3.02098 18.8405 3.00293 18.0703V18.0713L2.00293 4.07128L2 3.96874C2.01522 3.4622 2.41234 3.03984 2.92871 3.00292C3.44519 2.96603 3.89837 3.32778 3.98535 3.82714L3.99707 3.9287L4.99707 17.9287L5 18C5 18.2652 5.10543 18.5195 5.29297 18.707C5.48051 18.8946 5.73478 19 6 19H14C14.2652 19 14.5195 18.8946 14.707 18.707C14.8946 18.5195 15 18.2652 15 18L15.0029 17.9287L16.0029 3.9287C16.0423 3.37786 16.5204 2.96358 17.0713 3.00292Z"></path>
<path d="M7 15V9C7 8.44772 7.44772 8 8 8C8.55228 8 9 8.44772 9 9V15C9 15.5523 8.55228 16 8 16C7.44772 16 7 15.5523 7 15Z"></path>
<path d="M11 15V9C11 8.44772 11.4477 8 12 8C12.5523 8 13 8.44772 13 9V15C13 15.5523 12.5523 16 12 16C11.4477 16 11 15.5523 11 15Z"></path>
</symbol><symbol viewBox="0 0 18 20" id="icons-trophy">
<path d="M12 2H6V5L6.01465 5.29688C6.08291 5.98351 6.38671 6.6289 6.87891 7.12109C7.44152 7.6837 8.20435 8 9 8L9.29688 7.98535C9.98351 7.91709 10.6289 7.61329 11.1211 7.12109C11.6837 6.55848 12 5.79565 12 5V2ZM13.9941 5.24805C13.9328 6.48382 13.4142 7.6561 12.5352 8.53516C11.6561 9.41421 10.4838 9.93281 9.24805 9.99414L9 10C7.67392 10 6.40253 9.47284 5.46484 8.53516C4.58579 7.6561 4.06719 6.48382 4.00586 5.24805L4 5V1L4.00488 0.897461C4.05621 0.393331 4.48232 0 5 0H13L13.1025 0.00488281C13.6067 0.0562144 14 0.482323 14 1V5L13.9941 5.24805Z"></path>
<path d="M8 19V15C8 14.4477 8.44772 14 9 14C9.55228 14 10 14.4477 10 15V19C10 19.5523 9.55228 20 9 20C8.44772 20 8 19.5523 8 19Z"></path>
<path d="M13 18C13.5523 18 14 18.4477 14 19C14 19.5523 13.5523 20 13 20H5C4.44772 20 4 19.5523 4 19C4 18.4477 4.44772 18 5 18H13Z"></path>
<path d="M0 3C0 2.44772 0.447715 2 1 2C1.55228 2 2 2.44772 2 3C2 3.79565 2.3163 4.55848 2.87891 5.12109C3.3711 5.61329 4.01649 5.91709 4.70312 5.98535L5 6L5.10254 6.00488C5.60667 6.05621 6 6.48232 6 7C6 7.51768 5.60667 7.94379 5.10254 7.99512L5 8L4.75195 7.99414C3.51618 7.93281 2.3439 7.41421 1.46484 6.53516C0.527162 5.59747 0 4.32608 0 3Z"></path>
<path d="M16 3C16 2.44772 16.4477 2 17 2C17.5523 2 18 2.44772 18 3C18 4.32608 17.4728 5.59747 16.5352 6.53516C15.5975 7.47284 14.3261 8 13 8C12.4477 8 12 7.55228 12 7C12 6.44772 12.4477 6 13 6C13.7956 6 14.5585 5.6837 15.1211 5.12109C15.6837 4.55848 16 3.79565 16 3Z"></path>
</symbol><symbol viewBox="0 0 20 18" id="icons-warning">
<path d="M9.7578 0C10.1366 0 10.4829 0.213969 10.6523 0.552734L10.8877 0.993164C11.7099 2.49317 14.4417 7.3059 19.1123 15.4795C19.2467 15.6782 19.3735 15.9046 19.4473 16.1504C19.5284 16.4211 19.5713 16.8086 19.3769 17.1973C19.1804 17.5902 18.8398 17.7882 18.5654 17.8828C18.2978 17.9751 18.0134 18 17.7578 18H1.7578C1.50222 18 1.21781 17.9751 0.950183 17.8828C0.675857 17.7881 0.335156 17.5902 0.138659 17.1973C-0.0556822 16.8086 -0.0127917 16.4211 0.0683467 16.1504C0.142072 15.9046 0.268953 15.6782 0.403308 15.4795C5.7413 6.13793 8.54654 1.18617 8.86327 0.552734L8.93456 0.431641C9.11947 0.163674 9.42636 2.7032e-05 9.7578 0ZM9.7578 3.07324C8.52531 5.27317 6.07114 9.59052 2.40917 16H17.1064C13.4444 9.59049 10.9903 5.27314 9.7578 3.07324Z"></path>
<path d="M8.7579 7H10.7579V11H8.7579V7ZM8.7579 13H10.7579V15H8.7579V13Z"></path>
</symbol></svg>