<svg width="24" height="20" viewBox="0 0 24 20" xmlns="http://www.w3.org/2000/svg">
<path d="M22 5C22 4.73478 21.8946 4.48051 21.707 4.29297C21.5429 4.12883 21.3276 4.02757 21.0986 4.00488L21 4H17.7998C17.4851 3.99994 17.1888 3.85136 17 3.59961L15.8008 2H8.19922L7 3.59961C6.81118 3.85136 6.51488 3.99994 6.2002 4H3C2.73478 4 2.48051 4.10543 2.29297 4.29297C2.10543 4.48051 2 4.73478 2 5V17C2 17.2652 2.10543 17.5195 2.29297 17.707C2.48051 17.8946 2.73478 18 3 18H21C21.2652 18 21.5195 17.8946 21.707 17.707C21.8946 17.5195 22 17.2652 22 17V5ZM24 17C24 17.7957 23.6837 18.5585 23.1211 19.1211C22.5585 19.6837 21.7957 20 21 20H3C2.20435 20 1.44151 19.6837 0.878906 19.1211C0.316297 18.5585 0 17.7956 0 17V5C0 4.20435 0.316297 3.44152 0.878906 2.87891C1.44152 2.3163 2.20435 2 3 2H5.70117L6.90039 0.400391L6.97559 0.310547C7.16314 0.113451 7.42475 0 7.7002 0H16.2998L16.417 0.00683594C16.6872 0.0386419 16.9344 0.180058 17.0996 0.400391L18.2988 2H21L21.2969 2.01465C21.9835 2.08291 22.6289 2.38671 23.1211 2.87891C23.6837 3.44152 24 4.20435 24 5V17Z"/>
<path d="M15 11C15 9.34315 13.6569 8 12 8C10.3431 8 9 9.34315 9 11C9 12.6569 10.3431 14 12 14C13.6569 14 15 12.6569 15 11ZM17 11C17 13.7614 14.7614 16 12 16C9.23858 16 7 13.7614 7 11C7 8.23858 9.23858 6 12 6C14.7614 6 17 8.23858 17 11Z"/>
</svg>
