<svg width="24" height="24" viewBox="0 0 600 668" xmlns="http://www.w3.org/2000/svg">
<path d="M433.333 67.3337C451.743 67.3337 466.666 82.2572 466.666 100.667C466.666 119.076 451.743 134 433.333 134H33.3334C14.9239 134 0.000366211 119.076 0.000366211 100.667C0.000366211 82.2572 14.9239 67.3337 33.3334 67.3337H433.333Z"/>
<path d="M233.333 300.667C251.743 300.667 266.666 315.591 266.666 334C266.666 352.409 251.743 367.333 233.333 367.333H33.3334C14.9239 367.333 0.000366211 352.409 0.000366211 334C0.000366211 315.591 14.9239 300.667 33.3334 300.667H233.333Z"/>
<path d="M566.667 300.667C585.076 300.667 600 315.591 600 334C600 352.409 585.076 367.333 566.667 367.333H366.667C348.257 367.333 333.334 352.409 333.334 334C333.334 315.591 348.257 300.667 366.667 300.667H566.667Z"/>
<path d="M566.667 534C585.076 534 600 548.924 600 567.333C600 585.743 585.076 600.666 566.667 600.666H166.667C148.257 600.666 133.334 585.743 133.334 567.333C133.334 548.924 148.257 534 166.667 534H566.667Z"/>
<path d="M533.333 100.667C533.333 82.2576 518.41 67.3332 500 67.333C481.591 67.333 466.666 82.2575 466.666 100.667C466.666 119.076 481.591 134 500 134C518.41 134 533.333 119.076 533.333 100.667ZM600 100.667C600 155.895 555.229 200.667 500 200.667C444.772 200.667 400 155.895 400 100.667C400 45.4385 444.772 0.666992 500 0.666992C555.229 0.66717 600 45.4386 600 100.667Z"/>
<path d="M333.333 334C333.333 315.591 318.41 300.667 300 300.666C281.591 300.666 266.666 315.591 266.666 334C266.667 352.41 281.591 367.333 300 367.333C318.41 367.333 333.333 352.41 333.333 334ZM400 334C400 389.229 355.229 434 300 434C244.772 434 200.001 389.229 200 334C200 278.772 244.772 234 300 234C355.229 234.001 400 278.772 400 334Z"/>
<path d="M133.333 567.334C133.333 548.924 118.41 534 100 534C81.5909 534 66.6664 548.924 66.6664 567.334C66.6666 585.743 81.591 600.667 100 600.667C118.41 600.667 133.333 585.743 133.333 567.334ZM200 567.334C200 622.562 155.229 667.334 100 667.334C44.772 667.334 0.000543513 622.562 0.000366211 567.334C0.000366211 512.105 44.7719 467.334 100 467.334C155.229 467.334 200 512.105 200 567.334Z"/>
</svg>
