<svg width="24" height="21" viewBox="0 0 24 21" xmlns="http://www.w3.org/2000/svg">
<path fill-rule="evenodd" clip-rule="evenodd" d="M15.2501 1.15625C15.6988 1.15625 16.0626 1.47805 16.0626 1.875V2.83333C16.0626 3.75956 15.2138 4.51042 14.1668 4.51042H13.0834C12.9338 4.51042 12.8126 4.61768 12.8126 4.75V4.98958H13.3898C14.8126 4.98957 15.9403 4.98956 16.8501 5.06896C17.7844 5.1505 18.5649 5.32055 19.2706 5.70252C19.6044 5.88323 19.9147 6.09509 20.1958 6.33447C20.792 6.84204 21.1653 7.4628 21.4722 8.23272C21.7701 8.97989 22.0274 9.9274 22.3507 11.118L23.5364 15.4848C24.0597 17.4118 22.6641 19.3117 20.4738 19.7517C18.63 20.122 16.7173 19.3507 15.8713 17.8636L15.7326 17.6198C15.2563 16.7827 14.2592 16.2403 13.1523 16.2403H10.8478C9.74093 16.2403 8.74381 16.7827 8.26751 17.6198L8.12885 17.8636C7.28283 19.3507 5.37015 20.122 3.52628 19.7517C1.33604 19.3117 -0.0595922 17.4118 0.463678 15.4848L1.64936 11.1181C1.97266 9.92749 2.22996 8.97989 2.52786 8.23271C2.83485 7.4628 3.20813 6.84204 3.80424 6.33447C4.08537 6.09509 4.39571 5.88323 4.7296 5.70252C5.43528 5.32055 6.21571 5.1505 7.15002 5.06896C8.05983 4.98956 9.18752 4.98957 10.6104 4.98958H11.1876V4.75C11.1876 3.82377 12.0364 3.07292 13.0834 3.07292H14.1668C14.3163 3.07292 14.4376 2.96565 14.4376 2.83333V1.875C14.4376 1.47805 14.8014 1.15625 15.2501 1.15625ZM10.6533 6.42708C9.17795 6.42708 8.13032 6.4279 7.30954 6.49952C6.50413 6.56981 5.99398 6.70338 5.57772 6.92869C5.34372 7.05535 5.12694 7.20344 4.93115 7.37015C4.58501 7.66488 4.32108 8.05691 4.06033 8.71089C3.79371 9.37952 3.55509 10.2545 3.21897 11.4924L2.04373 15.8205C1.74074 16.9364 2.54148 18.0797 3.88613 18.3498C5.02321 18.5783 6.17689 18.097 6.67731 17.2173L6.81598 16.9736C7.57593 15.6379 9.14415 14.8028 10.8478 14.8028H13.1523C14.856 14.8028 16.4242 15.6379 17.1842 16.9736L17.3228 17.2173C17.8232 18.097 18.9769 18.5783 20.1139 18.3498C21.4587 18.0797 22.2594 16.9364 21.9564 15.8205L20.7812 11.4924C20.445 10.2546 20.2065 9.37952 19.9397 8.71089C19.6791 8.05691 19.4151 7.66488 19.069 7.37015C18.8732 7.20344 18.6564 7.05535 18.4224 6.92869C18.0061 6.70338 17.496 6.56981 16.6906 6.49952C15.8698 6.4279 14.8222 6.42708 13.3468 6.42708H10.6533ZM8.2084 8.82292C8.65712 8.82292 9.0209 9.14472 9.0209 9.54167V10.2604H9.83343C10.2821 10.2604 10.6459 10.5822 10.6459 10.9792C10.6459 11.3761 10.2821 11.6979 9.83343 11.6979H9.0209V12.4167C9.0209 12.8136 8.65712 13.1354 8.2084 13.1354C7.75966 13.1354 7.3959 12.8136 7.3959 12.4167V11.6979H6.5834C6.13466 11.6979 5.7709 11.3761 5.7709 10.9792C5.7709 10.5822 6.13466 10.2604 6.5834 10.2604H7.3959V9.54167C7.3959 9.14472 7.75966 8.82292 8.2084 8.82292Z"/>
<path d="M15.2501 0.956055C15.7855 0.956062 16.2628 1.34525 16.2628 1.875V2.83301C16.2628 3.89193 15.3007 4.7098 14.1671 4.70996H13.0831C13.0561 4.71003 13.036 4.72028 13.0245 4.73047C13.0133 4.74037 13.0128 4.7476 13.0128 4.75V4.79004L14.4025 4.79102C15.3645 4.79472 16.177 4.80988 16.8673 4.87012L17.2169 4.90527C18.017 4.99944 18.7185 5.17634 19.3653 5.52637L19.6202 5.67285C19.8704 5.82531 20.1062 5.99601 20.3253 6.18262L20.5509 6.38867C21.0509 6.88304 21.3834 7.46862 21.6583 8.1582L21.7696 8.45312C22.027 9.16241 22.2622 10.0272 22.5441 11.0654L23.7296 15.4326L23.7755 15.626C24.1814 17.5564 22.8104 19.3834 20.7237 19.9004L20.5128 19.9473C18.6575 20.3199 16.7173 19.5842 15.7843 18.1074L15.6974 17.9629L15.5587 17.7188C15.1229 16.953 14.198 16.4405 13.1525 16.4404H10.8478C9.86745 16.4404 8.99291 16.8907 8.52843 17.5781L8.44151 17.7188L8.30284 17.9629C7.4637 19.4376 5.64838 20.2296 3.84679 20.0059L3.48644 19.9473C1.2117 19.4901 -0.28988 17.4973 0.270616 15.4326L1.45616 11.0654L1.68761 10.2178C1.911 9.41144 2.11458 8.72837 2.34191 8.1582L2.46398 7.86914C2.75761 7.20891 3.12457 6.65123 3.67491 6.18262L3.89952 6.00098C4.12941 5.82558 4.37566 5.66667 4.63487 5.52637L4.91515 5.38672C5.5787 5.08417 6.30357 4.94249 7.13292 4.87012L7.48839 4.84277C8.34214 4.78901 9.36848 4.79003 10.6105 4.79004H10.9874V4.75C10.9874 3.69107 11.9495 2.8732 13.0831 2.87305H14.1671C14.194 2.87297 14.2141 2.86276 14.2257 2.85254C14.2368 2.84268 14.2374 2.83534 14.2374 2.83301V1.875C14.2374 1.34525 14.7147 0.956055 15.2501 0.956055ZM15.2501 1.15625C14.8014 1.15625 14.4376 1.47805 14.4376 1.875V2.83333C14.4376 2.96565 14.3163 3.07292 14.1668 3.07292H13.0834C12.0364 3.07292 11.1876 3.82377 11.1876 4.75V4.98958H10.6104C9.18752 4.98957 8.05983 4.98956 7.15002 5.06896C6.21571 5.1505 5.43528 5.32055 4.7296 5.70252C4.39571 5.88323 4.08537 6.09509 3.80424 6.33447C3.20813 6.84204 2.83485 7.4628 2.52786 8.23271C2.22996 8.97989 1.97266 9.92749 1.64936 11.1181L0.463678 15.4848C-0.0595922 17.4118 1.33604 19.3117 3.52628 19.7517C5.37015 20.122 7.28283 19.3507 8.12885 17.8636L8.26751 17.6198C8.74381 16.7827 9.74093 16.2403 10.8478 16.2403H13.1523C14.2592 16.2403 15.2563 16.7827 15.7326 17.6198L15.8713 17.8636C16.7173 19.3507 18.63 20.122 20.4738 19.7517C22.6641 19.3117 24.0597 17.4118 23.5364 15.4848L22.3507 11.118C22.0274 9.9274 21.7701 8.97989 21.4722 8.23272C21.1653 7.4628 20.792 6.84204 20.1958 6.33447C19.9147 6.09509 19.6044 5.88323 19.2706 5.70252C18.5649 5.32055 17.7844 5.1505 16.8501 5.06896C15.9403 4.98956 14.8126 4.98957 13.3898 4.98958H12.8126V4.75C12.8126 4.61768 12.9338 4.51042 13.0834 4.51042H14.1668C15.2138 4.51042 16.0626 3.75956 16.0626 2.83333V1.875C16.0626 1.47805 15.6988 1.15625 15.2501 1.15625ZM13.3468 6.42708C14.8222 6.42708 15.8698 6.4279 16.6906 6.49952C17.496 6.56981 18.0061 6.70338 18.4224 6.92869C18.6564 7.05535 18.8732 7.20344 19.069 7.37015C19.4151 7.66488 19.6791 8.05691 19.9397 8.71089C20.2065 9.37952 20.445 10.2546 20.7812 11.4924L21.9564 15.8205C22.2594 16.9364 21.4587 18.0797 20.1139 18.3498C18.9769 18.5783 17.8232 18.097 17.3228 17.2173L17.1842 16.9736C16.4242 15.6379 14.856 14.8028 13.1523 14.8028H10.8478C9.14415 14.8028 7.57593 15.6379 6.81598 16.9736L6.67731 17.2173C6.17689 18.097 5.02321 18.5783 3.88613 18.3498C2.54148 18.0797 1.74074 16.9364 2.04373 15.8205L3.21897 11.4924C3.55509 10.2545 3.79371 9.37952 4.06033 8.71089C4.32108 8.05691 4.58501 7.66488 4.93115 7.37015C5.12694 7.20344 5.34372 7.05535 5.57772 6.92869C5.99398 6.70338 6.50413 6.56981 7.30954 6.49952C8.13032 6.4279 9.17795 6.42708 10.6533 6.42708H13.3468ZM10.6534 6.62695C9.5443 6.62695 8.68339 6.62811 7.98058 6.6582L7.32726 6.69922C6.63445 6.75968 6.18023 6.86586 5.8214 7.03027L5.67296 7.10449C5.50647 7.1946 5.34926 7.29582 5.20323 7.40723L5.06066 7.52246C4.78659 7.75585 4.56248 8.06105 4.34093 8.55957L4.2462 8.78516C4.05017 9.27679 3.86833 9.8844 3.64757 10.6816L2.23644 15.873C1.97087 16.8517 2.66711 17.9005 3.92589 18.1533L4.12511 18.1865C5.12125 18.3099 6.07974 17.8623 6.50304 17.1182L6.64171 16.875L6.80187 16.6172C7.6482 15.3628 9.19342 14.6025 10.8478 14.6025H13.1525C14.9171 14.6026 16.557 15.4679 17.3575 16.875L17.4962 17.1182L17.588 17.2637C18.0805 17.9668 19.0755 18.354 20.0743 18.1533L20.3038 18.0977C21.3427 17.7923 21.9309 16.9179 21.8019 16.0566L21.7638 15.873L20.588 11.5449C20.2928 10.458 20.0755 9.66212 19.8507 9.04102L19.754 8.78516C19.5324 8.22901 19.3147 7.88328 19.0538 7.62695L18.9396 7.52246C18.8009 7.40437 18.6505 7.29582 18.4903 7.19824L18.3273 7.10449C17.9926 6.92337 17.5835 6.80149 16.9562 6.72754L16.673 6.69922C15.8629 6.62855 14.8256 6.62695 13.3468 6.62695H10.6534ZM8.20812 8.62305C8.74355 8.62305 9.22081 9.01225 9.22081 9.54199V10.0605H9.83312C10.3685 10.0605 10.8458 10.4498 10.8458 10.9795C10.8456 11.5091 10.3684 11.8975 9.83312 11.8975H9.22081V12.417C9.22062 12.9466 8.74344 13.335 8.20812 13.335C7.67289 13.3348 7.19562 12.9465 7.19542 12.417V11.8975H6.58312C6.04789 11.8973 5.57062 11.509 5.57042 10.9795C5.57042 10.4498 6.04778 10.0607 6.58312 10.0605H7.19542V9.54199C7.19542 9.01235 7.67278 8.62318 8.20812 8.62305ZM8.2084 8.82292C7.75966 8.82292 7.3959 9.14472 7.3959 9.54167V10.2604H6.5834C6.13466 10.2604 5.7709 10.5822 5.7709 10.9792C5.7709 11.3761 6.13466 11.6979 6.5834 11.6979H7.3959V12.4167C7.3959 12.8136 7.75966 13.1354 8.2084 13.1354C8.65712 13.1354 9.0209 12.8136 9.0209 12.4167V11.6979H9.83343C10.2821 11.6979 10.6459 11.3761 10.6459 10.9792C10.6459 10.5822 10.2821 10.2604 9.83343 10.2604H9.0209V9.54167C9.0209 9.14472 8.65712 8.82292 8.2084 8.82292Z"/>
<path d="M16.3334 9.54167C16.3334 10.071 15.8484 10.5 15.2501 10.5C14.6518 10.5 14.1668 10.071 14.1668 9.54167C14.1668 9.01238 14.6518 8.58333 15.2501 8.58333C15.8484 8.58333 16.3334 9.01238 16.3334 9.54167Z"/>
<path d="M16.3334 9.54167C16.3332 9.04568 15.9072 8.63737 15.3611 8.58822L15.2501 8.58333C14.6518 8.58333 14.1668 9.01238 14.1668 9.54167L14.1726 9.63997C14.2246 10.0909 14.6296 10.4497 15.1394 10.4954L15.2501 10.5C15.8109 10.5 16.2723 10.1231 16.3279 9.63997L16.3334 9.54167ZM16.6336 9.54134C16.6336 10.2698 15.9782 10.8001 15.2498 10.8001C14.5215 10.8 13.867 10.2697 13.867 9.54134C13.8672 8.81313 14.5216 8.28369 15.2498 8.28353C15.978 8.28353 16.6334 8.81303 16.6336 9.54134Z"/>
<path d="M18.5001 12.4167C18.5001 12.946 18.0151 13.375 17.4168 13.375C16.8184 13.375 16.3334 12.946 16.3334 12.4167C16.3334 11.8874 16.8184 11.4583 17.4168 11.4583C18.0151 11.4583 18.5001 11.8874 18.5001 12.4167Z"/>
<path d="M18.5001 12.4167C18.4999 11.9207 18.0738 11.5124 17.5278 11.4632L17.4168 11.4583C16.8184 11.4583 16.3334 11.8874 16.3334 12.4167L16.3393 12.515C16.3912 12.9659 16.7963 13.3247 17.3061 13.3704L17.4168 13.375C17.9776 13.375 18.4389 12.9981 18.4946 12.515L18.5001 12.4167ZM18.8002 12.4163C18.8002 13.1448 18.1448 13.6751 17.4164 13.6751C16.6882 13.675 16.0336 13.1447 16.0336 12.4163C16.0338 11.6881 16.6883 11.1587 17.4164 11.1585C18.1447 11.1585 18.8 11.688 18.8002 12.4163Z"/>
</svg>
