<svg width="22" height="22" viewBox="0 0 22 22" xmlns="http://www.w3.org/2000/svg">
<path d="M11 0C11.5523 0 12 0.447715 12 1C12 1.55228 11.5523 2 11 2C9.22005 2 7.48001 2.52774 6.00001 3.5166C4.52006 4.50547 3.36676 5.91127 2.68556 7.55566C2.00437 9.2002 1.82559 11.01 2.17286 12.7559C2.52013 14.5017 3.37709 16.1056 4.63575 17.3643C5.89442 18.6229 7.49833 19.4799 9.24415 19.8271C10.99 20.1744 12.7998 19.9956 14.4443 19.3145C16.0887 18.6332 17.4945 17.4799 18.4834 16C19.4723 14.52 20 12.78 20 11C20 10.4477 20.4477 10 21 10C21.5523 10 22 10.4477 22 11C22 13.1756 21.3551 15.3024 20.1465 17.1113C18.9378 18.9202 17.2199 20.3305 15.21 21.1631C13.2002 21.9956 10.9881 22.2134 8.8545 21.7891C6.72071 21.3646 4.76007 20.3167 3.22169 18.7783C1.68331 17.2399 0.635384 15.2793 0.210947 13.1455C-0.213344 11.0119 0.00443071 8.79985 0.836923 6.79004C1.6695 4.78015 3.07981 3.06216 4.88868 1.85352C6.6976 0.644866 8.82446 9.4264e-07 11 0Z"/>
</svg>
