<svg width="20" height="20" viewBox="0 0 20 20" xmlns="http://www.w3.org/2000/svg">
<path d="M14 8C14 4.68629 11.3137 2 8 2C4.68629 2 2 4.68629 2 8C2 11.3137 4.68629 14 8 14C11.3137 14 14 11.3137 14 8ZM16 8C16 12.4183 12.4183 16 8 16C3.58172 16 0 12.4183 0 8C0 3.58172 3.58172 0 8 0C12.4183 0 16 3.58172 16 8Z"/>
<path d="M12.293 12.293C12.6591 11.9268 13.2381 11.9043 13.6309 12.2246L13.707 12.293L19.707 18.293L19.7754 18.3691C20.0958 18.7619 20.0732 19.3409 19.707 19.707C19.3409 20.0731 18.7619 20.0957 18.3692 19.7754L18.293 19.707L12.293 13.707L12.2246 13.6309C11.9043 13.2381 11.9269 12.6591 12.293 12.293Z"/>
</svg>
