<svg width="20" height="21" viewBox="0 0 20 21" xmlns="http://www.w3.org/2000/svg">
<path d="M19 3C19.5523 3 20 3.44772 20 4C20 4.55228 19.5523 5 19 5H1C0.447715 5 0 4.55228 0 4C0 3.44772 0.447715 3 1 3H19Z" />
<path d="M13 4V3C13 2.73478 12.8946 2.48051 12.707 2.29297C12.5429 2.12883 12.3276 2.02757 12.0986 2.00488L12 2H8C7.73478 2 7.48051 2.10543 7.29297 2.29297C7.10543 2.48051 7 2.73478 7 3V4C7 4.55228 6.55228 5 6 5C5.44772 5 5 4.55228 5 4V3C5 2.20435 5.3163 1.44152 5.87891 0.878906C6.44152 0.316297 7.20435 0 8 0H12L12.2969 0.0146484C12.9835 0.0829076 13.6289 0.386708 14.1211 0.878906C14.6837 1.44152 15 2.20435 15 3V4C15 4.55228 14.5523 5 14 5C13.4477 5 13 4.55228 13 4Z"/>
<path d="M17.0713 3.00292C17.6221 3.04231 18.0364 3.52042 17.9971 4.07128L16.9971 18.0713L16.9961 18.0703C16.978 18.8405 16.6671 19.5751 16.1211 20.1211C15.5585 20.6837 14.7957 21 14 21H6C5.20435 21 4.44152 20.6837 3.87891 20.1211C3.3329 19.5751 3.02098 18.8405 3.00293 18.0703V18.0713L2.00293 4.07128L2 3.96874C2.01522 3.4622 2.41234 3.03984 2.92871 3.00292C3.44519 2.96603 3.89837 3.32778 3.98535 3.82714L3.99707 3.9287L4.99707 17.9287L5 18C5 18.2652 5.10543 18.5195 5.29297 18.707C5.48051 18.8946 5.73478 19 6 19H14C14.2652 19 14.5195 18.8946 14.707 18.707C14.8946 18.5195 15 18.2652 15 18L15.0029 17.9287L16.0029 3.9287C16.0423 3.37786 16.5204 2.96358 17.0713 3.00292Z"/>
<path d="M7 15V9C7 8.44772 7.44772 8 8 8C8.55228 8 9 8.44772 9 9V15C9 15.5523 8.55228 16 8 16C7.44772 16 7 15.5523 7 15Z" />
<path d="M11 15V9C11 8.44772 11.4477 8 12 8C12.5523 8 13 8.44772 13 9V15C13 15.5523 12.5523 16 12 16C11.4477 16 11 15.5523 11 15Z"/>
</svg>
