<svg width="20" height="18" viewBox="0 0 20 18" xmlns="http://www.w3.org/2000/svg">
<path d="M9.7578 0C10.1366 0 10.4829 0.213969 10.6523 0.552734L10.8877 0.993164C11.7099 2.49317 14.4417 7.3059 19.1123 15.4795C19.2467 15.6782 19.3735 15.9046 19.4473 16.1504C19.5284 16.4211 19.5713 16.8086 19.3769 17.1973C19.1804 17.5902 18.8398 17.7882 18.5654 17.8828C18.2978 17.9751 18.0134 18 17.7578 18H1.7578C1.50222 18 1.21781 17.9751 0.950183 17.8828C0.675857 17.7881 0.335156 17.5902 0.138659 17.1973C-0.0556822 16.8086 -0.0127917 16.4211 0.0683467 16.1504C0.142072 15.9046 0.268953 15.6782 0.403308 15.4795C5.7413 6.13793 8.54654 1.18617 8.86327 0.552734L8.93456 0.431641C9.11947 0.163674 9.42636 2.7032e-05 9.7578 0ZM9.7578 3.07324C8.52531 5.27317 6.07114 9.59052 2.40917 16H17.1064C13.4444 9.59049 10.9903 5.27314 9.7578 3.07324Z"/>
<path d="M8.7579 7H10.7579V11H8.7579V7ZM8.7579 13H10.7579V15H8.7579V13Z"/>
</svg>
